<svg width="207" height="205" viewBox="0 0 207 205" fill="none" xmlns="http://www.w3.org/2000/svg">
<rect width="207" height="205" fill="#E5E5E5"/>
<g filter="url(#filter0_d)">
<ellipse cx="103.5" cy="98.5" rx="99.5" ry="98.5" fill="#F2BA77"/>
</g>
<g filter="url(#filter1_d)">
<path d="M111.993 0.359476C93.5414 -1.20536 75.015 2.35856 58.4982 10.6502C41.9815 18.9418 28.13 31.632 18.5025 47.2929C8.87504 62.9537 3.85359 80.9637 4.00325 99.296C4.15291 117.628 9.46774 135.556 19.3497 151.06C29.2316 166.565 43.2884 179.032 59.9384 187.058C76.5883 195.085 95.1706 198.352 113.594 196.492C132.018 194.632 149.551 187.719 164.222 176.531C178.893 165.343 190.118 150.324 196.635 133.163L103.5 98.5L111.993 0.359476Z" fill="#9587BE"/>
</g>
<g filter="url(#filter2_d)">
<ellipse cx="103" cy="98" rx="46" ry="45" fill="#FFFAFA"/>
</g>
<defs>
<filter id="filter0_d" x="0" y="0" width="207" height="205" filterUnits="userSpaceOnUse" color-interpolation-filters="sRGB">
<feFlood flood-opacity="0" result="BackgroundImageFix"/>
<feColorMatrix in="SourceAlpha" type="matrix" values="0 0 0 0 0 0 0 0 0 0 0 0 0 0 0 0 0 0 127 0"/>
<feOffset dy="4"/>
<feGaussianBlur stdDeviation="2"/>
<feColorMatrix type="matrix" values="0 0 0 0 0 0 0 0 0 0 0 0 0 0 0 0 0 0 0.25 0"/>
<feBlend mode="normal" in2="BackgroundImageFix" result="effect1_dropShadow"/>
<feBlend mode="normal" in="SourceGraphic" in2="effect1_dropShadow" result="shape"/>
</filter>
<filter id="filter1_d" x="0" y="-4.57764e-05" width="200.635" height="205" filterUnits="userSpaceOnUse" color-interpolation-filters="sRGB">
<feFlood flood-opacity="0" result="BackgroundImageFix"/>
<feColorMatrix in="SourceAlpha" type="matrix" values="0 0 0 0 0 0 0 0 0 0 0 0 0 0 0 0 0 0 127 0"/>
<feOffset dy="4"/>
<feGaussianBlur stdDeviation="2"/>
<feColorMatrix type="matrix" values="0 0 0 0 0 0 0 0 0 0 0 0 0 0 0 0 0 0 0.25 0"/>
<feBlend mode="normal" in2="BackgroundImageFix" result="effect1_dropShadow"/>
<feBlend mode="normal" in="SourceGraphic" in2="effect1_dropShadow" result="shape"/>
</filter>
<filter id="filter2_d" x="53" y="53" width="100" height="98" filterUnits="userSpaceOnUse" color-interpolation-filters="sRGB">
<feFlood flood-opacity="0" result="BackgroundImageFix"/>
<feColorMatrix in="SourceAlpha" type="matrix" values="0 0 0 0 0 0 0 0 0 0 0 0 0 0 0 0 0 0 127 0"/>
<feOffset dy="4"/>
<feGaussianBlur stdDeviation="2"/>
<feColorMatrix type="matrix" values="0 0 0 0 0 0 0 0 0 0 0 0 0 0 0 0 0 0 0.25 0"/>
<feBlend mode="normal" in2="BackgroundImageFix" result="effect1_dropShadow"/>
<feBlend mode="normal" in="SourceGraphic" in2="effect1_dropShadow" result="shape"/>
</filter>
</defs>
</svg>
